<?xml version="1.0" standalone="no"?>
<!DOCTYPE svg PUBLIC "-//W3C//DTD SVG 20010904//EN"
 "http://www.w3.org/TR/2001/REC-SVG-20010904/DTD/svg10.dtd">
<svg version="1.0" xmlns="http://www.w3.org/2000/svg"
 width="700.000000pt" height="700.000000pt" viewBox="0 0 700.000000 700.000000"
 preserveAspectRatio="xMidYMid meet">
<metadata>
Created by potrace 1.14, written by Peter Selinger 2001-2017
</metadata>
<g transform="translate(0.000000,700.000000) scale(0.100000,-0.100000)"
fill="#000000" stroke="none">
<path d="M3329 5946 c-2 -2 -35 -7 -74 -10 -38 -4 -81 -8 -95 -11 -14 -2 -55
-9 -92 -15 -192 -30 -426 -108 -634 -212 -133 -67 -150 -76 -256 -142 -166
-104 -399 -300 -508 -427 -30 -35 -57 -66 -60 -69 -29 -25 -153 -200 -210
-293 -132 -218 -226 -445 -282 -677 -22 -93 -22 -95 -33 -160 -4 -25 -9 -53
-10 -62 -27 -144 -27 -581 0 -720 5 -21 9 -45 19 -108 2 -14 10 -47 16 -75 6
-27 13 -58 15 -68 8 -36 68 -222 75 -232 4 -5 13 -28 20 -50 19 -58 106 -237
163 -335 229 -389 515 -676 908 -908 185 -110 496 -229 709 -271 86 -17 95
-19 147 -26 26 -4 59 -10 73 -13 14 -3 634 -8 1378 -9 l1353 -4 -4 1363 c-2
750 -7 1377 -10 1393 -3 17 -8 48 -12 71 -49 335 -186 681 -389 987 -41 62
-83 121 -93 132 -10 12 -34 41 -53 65 -174 225 -466 463 -754 615 -142 75
-407 178 -511 199 -11 3 -49 11 -85 20 -148 34 -288 49 -496 52 -116 2 -213 2
-215 0z m357 -490 c45 -4 94 -9 108 -11 119 -20 165 -31 266 -62 361 -109 667
-306 916 -590 218 -250 386 -590 443 -898 11 -60 23 -126 27 -145 4 -19 8
-456 10 -971 l2 -937 -351 355 c-194 195 -446 450 -560 566 -115 117 -352 356
-528 533 -175 177 -319 326 -319 333 0 6 4 19 9 29 6 9 21 49 35 87 24 67 297
824 337 933 26 72 24 127 -6 188 -40 80 -143 139 -220 128 -46 -7 -104 -37
-138 -72 -31 -32 -49 -71 -113 -247 -41 -116 -95 -264 -119 -330 -24 -66 -63
-175 -87 -242 l-44 -123 -244 246 c-383 384 -353 359 -444 370 -124 15 -237
-87 -237 -213 0 -89 11 -109 157 -258 335 -345 1202 -1231 1228 -1256 19 -19
7 -19 -480 -20 -274 0 -506 -2 -514 -4 -61 -12 -127 -62 -156 -116 -22 -43
-29 -128 -14 -173 16 -49 63 -102 114 -129 l41 -22 728 -1 728 -1 30 -29 c46
-44 819 -817 829 -829 9 -11 -1732 -12 -1800 -1 -19 3 -57 8 -85 11 -27 3 -57
8 -65 10 -8 2 -28 7 -45 10 -92 16 -194 46 -315 94 -471 184 -836 514 -1066
964 -140 273 -205 545 -207 867 -1 120 9 274 18 289 1 4 6 28 9 55 19 139 84
341 161 504 296 618 914 1048 1595 1108 41 3 76 7 77 8 4 4 219 -2 289 -8z"/>
</g>
</svg>
